<svg fill="#8D8D8D" xmlns="http://www.w3.org/2000/svg" xmlns:xlink="http://www.w3.org/1999/xlink" viewBox="0 0 64 64" version="1.1" x="0px" y="0px"><title>8</title><desc>Created with Sketch.</desc><g stroke="none" stroke-width="1" fill="none" fill-rule="evenodd"><g fill-rule="nonzero" fill="#8D8D8D"><path d="M13,2 L54,2 C55.1045695,2 56,2.8954305 56,4 L56,64 C56,65.1045695 55.1045695,66 54,66 L13,66 C11.8954305,66 11,65.1045695 11,64 L11,4 C11,2.8954305 11.8954305,2 13,2 Z M13,5 L13,63 L13,63 C13,63.5522847 13.4477153,64 14,64 L53,64 L53,64 C53.5522847,64 54,63.5522847 54,63 L54,5 L54,5 C54,4.44771525 53.5522847,4 53,4 L14,4 L14,4 C13.4477153,4 13,4.44771525 13,5 Z M13.1707057,59 L9,59 L9,59 C8.44771525,59 8,58.5522847 8,58 C8,57.4477153 8.44771525,57 9,57 L9,57 L13.1707057,57 C13.5825421,55.8348076 14.6937812,55 16,55 C17.6568542,55 19,56.3431458 19,58 C19,59.6568542 17.6568542,61 16,61 C14.6937812,61 13.5825421,60.1651924 13.1707057,59 Z M15.5,58.8662178 C15.6470867,58.9513029 15.8178564,59 16,59 C16.5522847,59 17,58.5522847 17,58 C17,57.4477153 16.5522847,57 16,57 C15.8178564,57 15.6470867,57.0486971 15.5,57.1337822 C15.7989007,57.3066869 16,57.6298588 16,58 L16,58 C16,58.3701412 15.7989007,58.6933131 15.5,58.8662178 Z M13.1707057,51 L9,51 C8.44771525,51 8,50.5522847 8,50 C8,49.4477153 8.44771525,49 9,49 L13.1707057,49 C13.5825421,47.8348076 14.6937812,47 16,47 C17.6568542,47 19,48.3431458 19,50 C19,51.6568542 17.6568542,53 16,53 C14.6937812,53 13.5825421,52.1651924 13.1707057,51 Z M15.5,50.8662178 C15.6470867,50.9513029 15.8178564,51 16,51 C16.5522847,51 17,50.5522847 17,50 C17,49.4477153 16.5522847,49 16,49 C15.8178564,49 15.6470867,49.0486971 15.5,49.1337822 C15.7989007,49.3066869 16,49.6298588 16,50 L16,50 C16,50.3701412 15.7989007,50.6933131 15.5,50.8662178 Z M13.1707057,18 L9,18 L9,18 C8.44771525,18 8,17.5522847 8,17 C8,16.4477153 8.44771525,16 9,16 L9,16 L13.1707057,16 C13.5825421,14.8348076 14.6937812,14 16,14 C17.6568542,14 19,15.3431458 19,17 C19,18.6568542 17.6568542,20 16,20 C14.6937812,20 13.5825421,19.1651924 13.1707057,18 Z M15.5,17.8662178 C15.6470867,17.9513029 15.8178564,18 16,18 C16.5522847,18 17,17.5522847 17,17 C17,16.4477153 16.5522847,16 16,16 C15.8178564,16 15.6470867,16.0486971 15.5,16.1337822 C15.7989007,16.3066869 16,16.6298588 16,17 C16,17.3701412 15.7989007,17.6933131 15.5,17.8662178 Z M13.1707057,10 L9,10 L9,10 C8.44771525,10 8,9.55228475 8,9 C8,8.44771525 8.44771525,8 9,8 L9,8 L13.1707057,8 C13.5825421,6.83480763 14.6937812,6 16,6 C17.6568542,6 19,7.34314575 19,9 C19,10.6568542 17.6568542,12 16,12 C14.6937812,12 13.5825421,11.1651924 13.1707057,10 Z M15.5,9.8662178 C15.6470867,9.95130286 15.8178564,10 16,10 C16.5522847,10 17,9.55228475 17,9 C17,8.44771525 16.5522847,8 16,8 C15.8178564,8 15.6470867,8.04869714 15.5,8.1337822 C15.7989007,8.30668691 16,8.62985882 16,9 C16,9.37014118 15.7989007,9.69331309 15.5,9.8662178 Z M24,8 L28,8 C29.1045695,8 30,8.8954305 30,10 L30,14 C30,15.1045695 29.1045695,16 28,16 L24,16 C22.8954305,16 22,15.1045695 22,14 L22,10 C22,8.8954305 22.8954305,8 24,8 Z M24,19 L28,19 C29.1045695,19 30,19.8954305 30,21 L30,25 C30,26.1045695 29.1045695,27 28,27 L24,27 C22.8954305,27 22,26.1045695 22,25 L22,21 C22,19.8954305 22.8954305,19 24,19 Z M34,8 L38,8 C39.1045695,8 40,8.8954305 40,10 L40,14 C40,15.1045695 39.1045695,16 38,16 L34,16 C32.8954305,16 32,15.1045695 32,14 L32,10 C32,8.8954305 32.8954305,8 34,8 Z M34,19 L38,19 C39.1045695,19 40,19.8954305 40,21 L40,25 C40,26.1045695 39.1045695,27 38,27 L34,27 C32.8954305,27 32,26.1045695 32,25 L32,21 C32,19.8954305 32.8954305,19 34,19 Z M44,8 L48,8 C49.1045695,8 50,8.8954305 50,10 L50,14 C50,15.1045695 49.1045695,16 48,16 L44,16 C42.8954305,16 42,15.1045695 42,14 L42,10 C42,8.8954305 42.8954305,8 44,8 Z M44,19 L48,19 C49.1045695,19 50,19.8954305 50,21 L50,25 C50,26.1045695 49.1045695,27 48,27 L44,27 C42.8954305,27 42,26.1045695 42,25 L42,21 C42,19.8954305 42.8954305,19 44,19 Z M24,30 L28,30 C29.1045695,30 30,30.8954305 30,32 L30,36 C30,37.1045695 29.1045695,38 28,38 L24,38 C22.8954305,38 22,37.1045695 22,36 L22,32 C22,30.8954305 22.8954305,30 24,30 Z M34,30 L38,30 C39.1045695,30 40,30.8954305 40,32 L40,36 C40,37.1045695 39.1045695,38 38,38 L34,38 C32.8954305,38 32,37.1045695 32,36 L32,32 C32,30.8954305 32.8954305,30 34,30 Z M44,30 L48,30 C49.1045695,30 50,30.8954305 50,32 L50,36 C50,37.1045695 49.1045695,38 48,38 L44,38 C42.8954305,38 42,37.1045695 42,36 L42,32 C42,30.8954305 42.8954305,30 44,30 Z M24,41 L28,41 C29.1045695,41 30,41.8954305 30,43 L30,47 C30,48.1045695 29.1045695,49 28,49 L24,49 C22.8954305,49 22,48.1045695 22,47 L22,43 C22,41.8954305 22.8954305,41 24,41 Z M34,41 L38,41 C39.1045695,41 40,41.8954305 40,43 L40,47 C40,48.1045695 39.1045695,49 38,49 L34,49 C32.8954305,49 32,48.1045695 32,47 L32,43 C32,41.8954305 32.8954305,41 34,41 Z M44,41 L48,41 C49.1045695,41 50,41.8954305 50,43 L50,47 C50,48.1045695 49.1045695,49 48,49 L44,49 C42.8954305,49 42,48.1045695 42,47 L42,43 C42,41.8954305 42.8954305,41 44,41 Z M24,41 L28,41 C29.1045695,41 30,41.8954305 30,43 L30,47 C30,48.1045695 29.1045695,49 28,49 L24,49 C22.8954305,49 22,48.1045695 22,47 L22,43 C22,41.8954305 22.8954305,41 24,41 Z M34,41 L38,41 C39.1045695,41 40,41.8954305 40,43 L40,47 C40,48.1045695 39.1045695,49 38,49 L34,49 C32.8954305,49 32,48.1045695 32,47 L32,43 C32,41.8954305 32.8954305,41 34,41 Z M44,41 L48,41 C49.1045695,41 50,41.8954305 50,43 L50,47 C50,48.1045695 49.1045695,49 48,49 L44,49 C42.8954305,49 42,48.1045695 42,47 L42,43 C42,41.8954305 42.8954305,41 44,41 Z M24,52 L28,52 C29.1045695,52 30,52.8954305 30,54 L30,58 C30,59.1045695 29.1045695,60 28,60 L24,60 C22.8954305,60 22,59.1045695 22,58 L22,54 C22,52.8954305 22.8954305,52 24,52 Z M34,52 L38,52 C39.1045695,52 40,52.8954305 40,54 L40,58 C40,59.1045695 39.1045695,60 38,60 L34,60 C32.8954305,60 32,59.1045695 32,58 L32,54 C32,52.8954305 32.8954305,52 34,52 Z M44,52 L48,52 C49.1045695,52 50,52.8954305 50,54 L50,58 C50,59.1045695 49.1045695,60 48,60 L44,60 C42.8954305,60 42,59.1045695 42,58 L42,54 C42,52.8954305 42.8954305,52 44,52 Z" transform="translate(32.000000, 34.000000) rotate(90.000000) translate(-32.000000, -34.000000) "></path></g></g></svg>