<svg fill="#8D8D8D" xmlns="http://www.w3.org/2000/svg" xmlns:xlink="http://www.w3.org/1999/xlink" version="1.1" x="0px" y="0px" viewBox="0 0 24 24" style="enable-background:new 0 0 24 24;" xml:space="preserve"><g><path d="M21.589,3.476h-1.598V1.878c0-0.587-0.478-1.065-1.065-1.065h-2.131c-0.587,0-1.065,0.478-1.065,1.065v1.598H8.271V1.878   c0-0.587-0.478-1.065-1.065-1.065H5.074c-0.587,0-1.065,0.478-1.065,1.065v1.598H2.411c-0.881,0-1.598,0.717-1.598,1.598v16.515   c0,0.881,0.717,1.598,1.598,1.598h19.179c0.881,0,1.598-0.717,1.598-1.598V5.074C23.188,4.193,22.471,3.476,21.589,3.476z    M16.795,1.878h2.131v3.196h-2.131V1.878z M5.074,1.878h2.131v3.196H5.074V1.878z M22.122,21.589c0,0.294-0.239,0.533-0.533,0.533   H2.411c-0.294,0-0.533-0.239-0.533-0.533V9.869h20.244V21.589z M22.122,8.804H1.878V5.074c0-0.294,0.239-0.533,0.533-0.533h1.598   V6.14h4.262V4.542h7.458V6.14h4.262V4.542h1.598c0.294,0,0.533,0.239,0.533,0.533V8.804z"></path><rect x="13.22" y="12.533" width="2.131" height="1.065"></rect><rect x="17.482" y="12.533" width="2.131" height="1.065"></rect><rect x="8.958" y="15.196" width="2.131" height="1.065"></rect><rect x="13.22" y="15.196" width="2.131" height="1.065"></rect><rect x="17.482" y="15.196" width="2.131" height="1.065"></rect><rect x="8.958" y="17.86" width="2.131" height="1.065"></rect><rect x="13.22" y="17.86" width="2.131" height="1.065"></rect><rect x="17.482" y="17.86" width="2.131" height="1.065"></rect></g></svg>