<svg fill="#8D8D8D" xmlns="http://www.w3.org/2000/svg" xmlns:xlink="http://www.w3.org/1999/xlink" version="1.1" x="0px" y="0px" viewBox="0 0 100 100" enable-background="new 0 0 100 100" xml:space="preserve"><circle cx="50" cy="53.5" r="15"></circle><path d="M83,25.5h-3.208h-1.985c-2.641,0-5.531-2.033-6.425-4.518l-1.784-4.965c-0.895-2.484-3.785-4.518-6.425-4.518H36.827  c-2.639,0-5.531,2.033-6.424,4.518l-1.785,4.965c-0.894,2.484-3.784,4.518-6.424,4.518h-1.986H17c-6.6,0-12,5.398-12,12v39  c0,6.6,5.4,12,12,12h66c6.6,0,12-5.4,12-12v-39C95,30.898,89.6,25.5,83,25.5z M50,76c-12.426,0-22.5-10.072-22.5-22.5  C27.5,41.072,37.574,31,50,31c12.428,0,22.5,10.072,22.5,22.5C72.5,65.928,62.428,76,50,76z M85,40.5c0,1.381-1.119,2.5-2.5,2.5H80  c-1.381,0-2.5-1.119-2.5-2.5V38c0-1.381,1.119-2.5,2.5-2.5h2.5c1.381,0,2.5,1.119,2.5,2.5V40.5z"></path></svg>