<svg fill="#8D8D8D" xmlns="http://www.w3.org/2000/svg" xmlns:xlink="http://www.w3.org/1999/xlink" viewBox="0 0 48 48" version="1.1" x="0px" y="0px"><title>6.1</title><desc>Created with Sketch.</desc><g stroke="none" stroke-width="1" fill="none" fill-rule="evenodd"><g fill="#8D8D8D"><g><path d="M43.9989953,18 C43.9996615,13.3801027 44,10.0081112 44,10.0081112 C44,10.0067173 41.6106358,10.0055202 38,10.004507 L38,11.9941413 C38,13.1019465 37.1122704,14 36,14 C34.8954305,14 34,13.1029399 34,11.9941413 L34,10.0035493 C27.8912634,10.0022825 20.1069262,10.0013783 14,10.0007997 L14,11.9941413 C14,13.1019465 13.1122704,14 12,14 C10.8954305,14 10,13.1029399 10,11.9941413 L10,10.0004439 C6.3948934,10.0001437 4.00989318,10 4.00989318,10 C4.00785065,10 4.00611296,13.3759389 4.00469082,18 L43.9989953,18 Z M43.9983798,22 L4.00360241,22 C4.00122539,31.783829 4,43.9918888 4,43.9918888 C4,43.9975912 43.9901068,44 43.9901068,44 C43.993992,44 43.9967743,31.7851914 43.9983798,22 Z M38,6 L43.9901068,6 C46.2047097,6 48,7.79125179 48,10.0081112 L48,43.9918888 C48,46.2055075 46.2059475,48 43.9901068,48 L4.00989318,48 C1.79529033,48 0,46.2087482 0,43.9918888 L0,10.0081112 C0,7.79449249 1.79405245,6 4.00989318,6 L10,6 L10,2.00585866 C10,0.898053512 10.8877296,0 12,0 C13.1045695,0 14,0.897060126 14,2.00585866 L14,6 L34,6 L34,2.00585866 C34,0.898053512 34.8877296,0 36,0 C37.1045695,0 38,0.897060126 38,2.00585866 L38,6 Z"></path></g></g></g></svg>